<?xml version="1.0" encoding="UTF-8" standalone="no"?>
<!DOCTYPE svg PUBLIC "-//W3C//DTD SVG 1.1//EN" "http://www.w3.org/Graphics/SVG/1.1/DTD/svg11.dtd">
<svg xmlns:xl="http://www.w3.org/1999/xlink" xmlns="http://www.w3.org/2000/svg" xmlns:dc="http://purl.org/dc/elements/1.1/" version="1.1" viewBox="340.625 320.02323 33.441178 19" width="33.441178" height="19">
  <defs/>
  <g id="Canvas_1" stroke="none" stroke-opacity="1" fill="none" fill-opacity="1" stroke-dasharray="none">
    <title>Canvas 1</title>
    <g id="Canvas_1_Layer_1">
      <title>Layer 1</title>
      <g id="Group_13">
        <g id="Group_10">
          <g id="Graphic_4">
            <text transform="translate(364.5647 320.7117)" fill="black">
              <tspan font-family="Courier New" font-size="15" fill="black" x="0" y="12">}</tspan>
            </text>
          </g>
          <g id="Graphic_9">
            <text transform="translate(341.125 320.7117)" fill="black">
              <tspan font-family="Courier New" font-size="15" fill="black" x="0" y="12">{</tspan>
            </text>
          </g>
        </g>
        <g id="Graphic_11">
          <path d="M 348.42674 325.0393 L 366.22674 325.0393 C 366.77902 325.0393 367.22674 325.48703 367.22674 326.0393 L 367.22674 332.0393 C 367.22674 332.5916 366.77902 333.0393 366.22674 333.0393 L 348.42674 333.0393 C 347.87445 333.0393 347.42674 332.5916 347.42674 332.0393 L 347.42674 326.0393 C 347.42674 325.48703 347.87445 325.0393 348.42674 325.0393 Z" fill="black"/>
          <path d="M 348.42674 325.0393 L 366.22674 325.0393 C 366.77902 325.0393 367.22674 325.48703 367.22674 326.0393 L 367.22674 332.0393 C 367.22674 332.5916 366.77902 333.0393 366.22674 333.0393 L 348.42674 333.0393 C 347.87445 333.0393 347.42674 332.5916 347.42674 332.0393 L 347.42674 326.0393 C 347.42674 325.48703 347.87445 325.0393 348.42674 325.0393 Z" stroke="black" stroke-linecap="round" stroke-linejoin="round" stroke-width="1"/>
        </g>
        <g id="Graphic_12">
          <text transform="translate(351.2888 325.52323)" fill="#fefbff">
            <tspan font-family="Courier New" font-weight="bold" font-size="7" fill="#fefbff" x="0" y="6">011</tspan>
          </text>
        </g>
      </g>
    </g>
  </g>
</svg>
